# File created by Blade
# Date/Time:  Thu Sep 25 19:32:06 2014
# Frame Rate: 120.000 fps
#------------------------------------------------------
:FULLY-SPECIFIED
:DEGREES
3494
root -3.752507 33.977341 0.483289 1.234377 -15.165705 14.299888
Spine -0.886930 5.939496 6.141564
Head -15.531113 14.388002 -9.938896
LeftShoulder -8.801976 11.949019 9.375714
LeftArm 55.112895 21.232526 -51.933078
LeftForeArm 31.451976 -0.000000 93.863345
LeftHand -29.666291 -0.000000 -0.080907
LeftHandThumb1 -26.253704 0.000000 33.147579
RightShoulder -18.031592 9.878437 -23.949293
RightArm -17.764970 -38.256199 91.460106
RightForeArm -13.150991 -0.000000 27.916931
RightHand -4.477984 -0.000000 16.749691
RightHandThumb1 -24.326973 -0.000000 -32.862282
LeftUpLeg -11.716330 12.462198 -2.192614
LeftLeg 23.609029 -0.000000 -0.000000
LeftFoot -5.197762 11.619407 -26.396314
LeftToeBase 4.996151 -0.000000 -0.000000
RightUpLeg -7.392416 -7.012349 -10.294948
RightLeg 22.201235 -0.000000 -0.000000
RightFoot -10.260491 0.051297 -0.122820
RightToeBase -13.808291 -0.000000 0.000000
3495
root -3.750128 33.971945 0.490579 1.290262 -14.635768 14.163746
Spine -0.886552 5.872933 6.183816
Head -15.581308 14.009812 -9.816940
LeftShoulder -8.756807 11.967482 9.071139
LeftArm 55.175335 23.168483 -51.447048
LeftForeArm 31.004609 -0.000000 92.075082
LeftHand -29.761039 -0.000000 0.096075
LeftHandThumb1 -26.253704 0.000000 33.147579
RightShoulder -18.081166 9.885951 -23.888850
RightArm -17.543706 -38.159847 91.358686
RightForeArm -13.065743 -0.000000 28.027069
RightHand -4.494109 -0.000000 16.571745
RightHandThumb1 -24.326973 -0.000000 -32.862282
LeftUpLeg -11.133690 12.456825 -2.055644
LeftLeg 22.835892 -0.000000 -0.000000
LeftFoot -5.442389 11.590671 -26.446835
LeftToeBase 4.803131 -0.000000 -0.000000
RightUpLeg -7.156190 -7.008815 -10.121775
RightLeg 22.002885 -0.000000 -0.000000
RightFoot -10.260151 -0.520737 -0.077928
RightToeBase -13.855344 -0.000000 0.000000
3496
root -3.759997 33.962232 0.500540 1.322047 -14.093634 13.927258
Spine -0.846708 5.795398 6.324941
Head -15.649297 13.590099 -9.682525
LeftShoulder -8.756165 12.050639 8.707693
LeftArm 55.291212 24.960275 -50.897096
LeftForeArm 30.554590 -0.000000 90.214077
LeftHand -29.089996 -0.000000 0.055567
LeftHandThumb1 -26.253704 0.000000 33.147579
RightShoulder -18.073922 9.913128 -23.834675
RightArm -17.349026 -37.964061 91.247433
RightForeArm -13.121302 -0.000000 28.126722
RightHand -4.499669 -0.000000 16.238190
RightHandThumb1 -24.326973 -0.000000 -32.862282
LeftUpLeg -10.548360 12.462829 -1.814136
LeftLeg 22.180235 -0.000000 -0.000000
LeftFoot -5.736655 11.640169 -25.912676
LeftToeBase 4.930818 -0.000000 -0.000000
RightUpLeg -6.825393 -6.873791 -9.818359
RightLeg 21.743034 -0.000000 -0.000000
RightFoot -10.230347 -1.216596 -0.128785
RightToeBase -13.942672 -0.000000 0.000000
3497
root -3.760957 33.954501 0.510075 1.358750 -13.557882 13.758421
Spine -0.816020 5.735139 6.383127
Head -15.790689 13.104424 -9.566540
LeftShoulder -8.782803 12.105422 8.394755
LeftArm 55.382732 26.755164 -50.484736
LeftForeArm 30.261498 -0.000000 88.243753
LeftHand -29.244674 -0.000000 0.162655
LeftHandThumb1 -26.253704 0.000000 33.147579
RightShoulder -18.127221 9.957200 -23.794246
RightArm -17.151119 -37.819687 91.127325
RightForeArm -13.130579 0.000000 28.223774
RightHand -4.483651 -0.000000 15.808159
RightHandThumb1 -24.326973 -0.000000 -32.862282
LeftUpLeg -10.009563 12.362320 -1.660284
LeftLeg 21.585636 -0.000000 -0.000000
LeftFoot -6.185324 11.592695 -26.473223
LeftToeBase 4.916040 -0.000000 -0.000000
RightUpLeg -6.522555 -6.908626 -9.606048
RightLeg 21.458988 -0.000000 -0.000000
RightFoot -10.268278 -1.770608 -0.072710
RightToeBase -13.735123 -0.000000 0.000000
3498
root -3.759425 33.945822 0.516732 1.409521 -13.007625 13.596878
Spine -0.822823 5.734261 6.404044
Head -15.857621 12.598598 -9.336905
LeftShoulder -8.717951 12.211129 8.076977
LeftArm 55.511428 28.418399 -49.991429
LeftForeArm 29.857553 -0.000000 86.253603
LeftHand -29.073856 -0.000000 0.156594
LeftHandThumb1 -26.253704 0.000000 33.147579
RightShoulder -18.206144 9.950630 -23.754680
RightArm -16.893684 -37.756897 90.957535
RightForeArm -13.017288 -0.000000 28.302358
RightHand -4.507136 0.000000 15.564560
RightHandThumb1 -24.326973 -0.000000 -32.862282
LeftUpLeg -9.509104 12.170959 -1.539667
LeftLeg 20.989422 -0.000000 -0.000000
LeftFoot -6.421595 11.671462 -26.492944
LeftToeBase 4.192673 -0.000000 -0.000000
RightUpLeg -6.239271 -7.014885 -9.403740
RightLeg 21.179563 -0.000000 -0.000000
RightFoot -10.245031 -2.270675 -0.210559
RightToeBase -13.852719 -0.000000 0.000000
3499
root -3.761233 33.937608 0.518503 1.485675 -12.405237 13.418503
Spine -0.863496 5.658284 6.438396
Head -15.946862 12.079297 -9.187191
LeftShoulder -8.597917 12.017817 7.852356
LeftArm 55.184751 30.169083 -49.898390
LeftForeArm 29.541565 0.000000 84.217921
LeftHand -29.215164 -0.000000 0.297750
LeftHandThumb1 -26.253704 0.000000 33.147579
RightShoulder -18.201402 9.992665 -23.731466
RightArm -16.694030 -37.489212 90.819264
RightForeArm -13.064662 0.000000 28.346527
RightHand -4.531931 -0.000000 15.253309
RightHandThumb1 -24.326973 -0.000000 -32.862282
LeftUpLeg -9.073541 11.818188 -1.414516
LeftLeg 20.469643 -0.000000 -0.000000
LeftFoot -6.920591 11.853397 -26.540531
LeftToeBase 4.403636 -0.000000 -0.000000
RightUpLeg -5.957709 -7.119781 -9.174581
RightLeg 20.861787 -0.000000 -0.000000
RightFoot -10.228547 -2.775684 -0.218751
RightToeBase -13.779466 -0.000000 0.000000
3500
root -3.751637 33.929778 0.519960 1.580884 -11.779192 13.276306
Spine -0.946464 5.576470 6.453869
Head -16.036482 11.557977 -9.041688
LeftShoulder -8.588433 12.042154 7.536637
LeftArm 55.170618 31.759665 -49.585873
LeftForeArm 29.120862 0.000000 82.107966
LeftHand -29.223682 -0.000000 0.630242
LeftHandThumb1 -26.253704 0.000000 33.147579
RightShoulder -18.218140 9.975450 -23.747405
RightArm -16.443743 -37.352238 90.664088
RightForeArm -13.246279 0.000000 28.413354
RightHand -4.642820 -0.000000 14.873712
RightHandThumb1 -24.326973 -0.000000 -32.862282
LeftUpLeg -8.741012 11.428846 -1.369663
LeftLeg 20.115695 -0.000000 -0.000000
LeftFoot -7.322564 11.927546 -26.782935
LeftToeBase 4.066873 -0.000000 -0.000000
RightUpLeg -5.720826 -7.295820 -9.010804
RightLeg 20.577007 -0.000000 -0.000000
RightFoot -10.248903 -3.176604 -0.181746
RightToeBase -13.726106 -0.000000 0.000000
3501
root -3.748583 33.921478 0.524101 1.655983 -11.150294 13.087529
Spine -1.003380 5.501675 6.519191
Head -16.122223 11.059355 -8.943105
LeftShoulder -8.590831 12.186190 7.160963
LeftArm 55.205969 33.205575 -49.219049
LeftForeArm 28.557457 -0.000000 80.015233
LeftHand -29.216570 -0.000000 1.061530
LeftHandThumb1 -26.253704 0.000000 33.147579
RightShoulder -18.227978 10.038898 -23.783226
RightArm -16.296511 -37.209619 90.550088
RightForeArm -13.512042 -0.000000 28.489627
RightHand -4.717304 0.000000 14.494084
RightHandThumb1 -24.326973 -0.000000 -32.862282
LeftUpLeg -8.380352 11.079224 -1.282461
LeftLeg 19.761748 -0.000000 -0.000000
LeftFoot -7.694212 12.043275 -26.440525
LeftToeBase 4.239502 -0.000000 -0.000000
RightUpLeg -5.426337 -7.412294 -8.800854
RightLeg 20.254809 -0.000000 -0.000000
RightFoot -10.255714 -3.549746 -0.084205
RightToeBase -13.632002 -0.000000 0.000000
3502
root -3.746575 33.911458 0.524460 1.776751 -10.479784 12.887448
Spine -1.123847 5.418458 6.559414
Head -16.209375 10.540438 -8.769632
LeftShoulder -8.603118 12.171492 6.867132
LeftArm 54.972307 34.684442 -49.088306
LeftForeArm 28.274066 -0.000000 77.898485
LeftHand -28.653948 -0.000000 0.779547
LeftHandThumb1 -26.253704 0.000000 33.147579
RightShoulder -18.272282 9.981420 -23.783284
RightArm -16.011545 -37.159077 90.306762
RightForeArm -13.489144 0.000000 28.597125
RightHand -4.723173 -0.000000 14.394085
RightHandThumb1 -24.326973 -0.000000 -32.862282
LeftUpLeg -8.122719 10.623865 -1.192900
LeftLeg 19.552287 -0.000000 -0.000000
LeftFoot -8.109629 11.995450 -26.708259
LeftToeBase 4.038195 -0.000000 -0.000000
RightUpLeg -5.199291 -7.592586 -8.563984
RightLeg 19.952366 -0.000000 -0.000000
RightFoot -10.250675 -3.968170 0.021653
RightToeBase -13.623815 -0.000000 0.000000
3503
root -3.745337 33.901855 0.525916 1.863162 -9.800371 12.695869
Spine -1.213947 5.360948 6.582988
Head -16.289097 10.032979 -8.586522
LeftShoulder -8.577024 12.255316 6.548004
LeftArm 54.852125 35.999842 -48.854300
LeftForeArm 27.895297 -0.000000 75.839608
LeftHand -28.268921 -0.000000 0.322550
LeftHandThumb1 -26.253704 0.000000 33.147579
RightShoulder -18.337610 9.992053 -23.808487
RightArm -15.834793 -37.101786 90.140323
RightForeArm -13.546393 -0.000000 28.695923
RightHand -4.860839 -0.000000 14.207169
RightHandThumb1 -24.326973 -0.000000 -32.862282
LeftUpLeg -7.854207 10.210457 -1.123901
LeftLeg 19.383063 -0.000000 -0.000000
LeftFoot -8.470567 11.978675 -26.609456
LeftToeBase 3.864804 -0.000000 -0.000000
RightUpLeg -4.927554 -7.692733 -8.358465
RightLeg 19.663961 -0.000000 -0.000000
RightFoot -10.272252 -4.326474 0.080330
RightToeBase -13.447824 -0.000000 0.000000
